<svg width="447" height="84" viewBox="0 0 447 84" fill="none" xmlns="http://www.w3.org/2000/svg">
<path d="M27.6051 57H21.9801L32.2216 27.9091H38.7273L48.983 57H43.358L35.5881 33.875H35.3608L27.6051 57ZM27.7898 45.5938H43.1307V49.8267H27.7898V45.5938ZM54.0146 57V27.9091H64.9237C67.1586 27.9091 69.0336 28.2973 70.5487 29.0739C72.0733 29.8504 73.2239 30.9394 74.0004 32.3409C74.7864 33.733 75.1794 35.357 75.1794 37.2131C75.1794 39.0786 74.7817 40.6979 73.9862 42.071C73.2002 43.4347 72.0402 44.4905 70.5061 45.2386C68.972 45.9773 67.0875 46.3466 64.8527 46.3466H57.0828V41.9716H64.1425C65.4493 41.9716 66.5194 41.7917 67.3527 41.4318C68.186 41.0625 68.8016 40.5275 69.1993 39.8267C69.6065 39.1165 69.8101 38.2453 69.8101 37.2131C69.8101 36.1809 69.6065 35.3002 69.1993 34.571C68.7921 33.8324 68.1718 33.2737 67.3385 32.8949C66.5052 32.5066 65.4304 32.3125 64.1141 32.3125H59.2845V57H54.0146ZM69.043 43.8182L76.2447 57H70.3641L63.2902 43.8182H69.043ZM81.2303 57V27.9091H92.3666C94.4689 27.9091 96.2161 28.2405 97.6081 28.9034C99.0096 29.5568 100.056 30.4517 100.747 31.5881C101.448 32.7244 101.798 34.0123 101.798 35.4517C101.798 36.6354 101.571 37.6487 101.117 38.4915C100.662 39.3248 100.051 40.0019 99.2842 40.5227C98.5172 41.0436 97.6602 41.4176 96.7132 41.6449V41.929C97.7454 41.9858 98.735 42.303 99.682 42.8807C100.638 43.4489 101.42 44.2538 102.026 45.2955C102.632 46.3371 102.935 47.5966 102.935 49.0739C102.935 50.5795 102.57 51.9337 101.841 53.1364C101.112 54.3295 100.013 55.2718 98.5456 55.9631C97.0778 56.6544 95.2312 57 93.0058 57H81.2303ZM86.5001 52.5966H92.1678C94.0806 52.5966 95.4585 52.232 96.3013 51.5028C97.1536 50.7642 97.5797 49.8172 97.5797 48.6619C97.5797 47.8002 97.3666 47.0237 96.9405 46.3324C96.5143 45.6316 95.9083 45.0824 95.1223 44.6847C94.3363 44.2775 93.3988 44.0739 92.3098 44.0739H86.5001V52.5966ZM86.5001 40.2812H91.7132C92.6223 40.2812 93.4414 40.1155 94.1706 39.7841C94.8998 39.4432 95.4727 38.965 95.8893 38.3494C96.3155 37.7244 96.5286 36.9858 96.5286 36.1335C96.5286 35.0066 96.1308 34.0786 95.3354 33.3494C94.5494 32.6203 93.3799 32.2557 91.8268 32.2557H86.5001V40.2812ZM108.719 57V27.9091H127.64V32.3267H113.989V40.2244H126.66V44.642H113.989V52.5824H127.753V57H108.719ZM139.486 27.9091V57H134.216V27.9091H139.486ZM145.114 32.3267V27.9091H168.325V32.3267H159.333V57H154.106V32.3267H145.114Z" fill="black"/>
<path d="M192.337 27.9091H197.607V46.9148C197.607 48.9981 197.115 50.8305 196.13 52.4119C195.154 53.9934 193.781 55.2292 192.01 56.1193C190.24 57 188.17 57.4403 185.803 57.4403C183.426 57.4403 181.352 57 179.581 56.1193C177.811 55.2292 176.437 53.9934 175.462 52.4119C174.487 50.8305 173.999 48.9981 173.999 46.9148V27.9091H179.269V46.4744C179.269 47.6866 179.534 48.7661 180.064 49.7131C180.604 50.66 181.362 51.4034 182.337 51.9432C183.312 52.4735 184.468 52.7386 185.803 52.7386C187.138 52.7386 188.294 52.4735 189.269 51.9432C190.254 51.4034 191.011 50.66 191.542 49.7131C192.072 48.7661 192.337 47.6866 192.337 46.4744V27.9091ZM228.441 27.9091V57H223.754L210.046 37.1847H209.805V57H204.535V27.9091H209.251L222.944 47.7386H223.2V27.9091H228.441ZM245.241 57H235.383V27.9091H245.44C248.328 27.9091 250.81 28.4915 252.883 29.6562C254.967 30.8116 256.567 32.4735 257.685 34.642C258.802 36.8106 259.361 39.4053 259.361 42.4261C259.361 45.4564 258.797 48.0606 257.67 50.2386C256.553 52.4167 254.938 54.0881 252.827 55.2528C250.724 56.4176 248.196 57 245.241 57ZM240.653 52.4403H244.986C247.012 52.4403 248.703 52.071 250.057 51.3324C251.411 50.5843 252.429 49.4716 253.111 47.9943C253.792 46.5076 254.133 44.6515 254.133 42.4261C254.133 40.2008 253.792 38.3542 253.111 36.8864C252.429 35.4091 251.42 34.3059 250.085 33.5767C248.759 32.8381 247.112 32.4688 245.142 32.4688H240.653V52.4403Z" fill="#FF0000"/>
<path d="M265.568 57V27.9091H284.488V32.3267H270.838V40.2244H283.508V44.642H270.838V52.5824H284.602V57H265.568ZM291.065 57V27.9091H301.974C304.209 27.9091 306.084 28.2973 307.599 29.0739C309.123 29.8504 310.274 30.9394 311.05 32.3409C311.836 33.733 312.229 35.357 312.229 37.2131C312.229 39.0786 311.832 40.6979 311.036 42.071C310.25 43.4347 309.09 44.4905 307.556 45.2386C306.022 45.9773 304.138 46.3466 301.903 46.3466H294.133V41.9716H301.192C302.499 41.9716 303.569 41.7917 304.403 41.4318C305.236 41.0625 305.852 40.5275 306.249 39.8267C306.656 39.1165 306.86 38.2453 306.86 37.2131C306.86 36.1809 306.656 35.3002 306.249 34.571C305.842 33.8324 305.222 33.2737 304.388 32.8949C303.555 32.5066 302.48 32.3125 301.164 32.3125H296.335V57H291.065ZM306.093 43.8182L313.295 57H307.414L300.34 43.8182H306.093ZM318.28 57V27.9091H336.917V32.3267H323.55V40.2244H335.638V44.642H323.55V57H318.28ZM368.912 42.4545C368.912 45.589 368.325 48.2737 367.151 50.5085C365.986 52.7339 364.395 54.4384 362.378 55.6222C360.37 56.8059 358.093 57.3977 355.546 57.3977C352.998 57.3977 350.716 56.8059 348.699 55.6222C346.691 54.429 345.101 52.7197 343.926 50.4943C342.761 48.2595 342.179 45.5795 342.179 42.4545C342.179 39.3201 342.761 36.6402 343.926 34.4148C345.101 32.1799 346.691 30.4706 348.699 29.2869C350.716 28.1032 352.998 27.5114 355.546 27.5114C358.093 27.5114 360.37 28.1032 362.378 29.2869C364.395 30.4706 365.986 32.1799 367.151 34.4148C368.325 36.6402 368.912 39.3201 368.912 42.4545ZM363.614 42.4545C363.614 40.2481 363.268 38.3873 362.577 36.8722C361.895 35.3475 360.948 34.197 359.736 33.4205C358.524 32.6345 357.127 32.2415 355.546 32.2415C353.964 32.2415 352.567 32.6345 351.355 33.4205C350.143 34.197 349.191 35.3475 348.5 36.8722C347.818 38.3873 347.477 40.2481 347.477 42.4545C347.477 44.661 347.818 46.5265 348.5 48.0511C349.191 49.5663 350.143 50.7169 351.355 51.5028C352.567 52.2794 353.964 52.6676 355.546 52.6676C357.127 52.6676 358.524 52.2794 359.736 51.5028C360.948 50.7169 361.895 49.5663 362.577 48.0511C363.268 46.5265 363.614 44.661 363.614 42.4545ZM375.094 57V27.9091H380.364V52.5824H393.177V57H375.094ZM417.306 37.1989C417.07 36.4318 416.743 35.7453 416.326 35.1392C415.919 34.5237 415.427 33.9981 414.849 33.5625C414.281 33.1269 413.627 32.8002 412.889 32.5824C412.15 32.3551 411.345 32.2415 410.474 32.2415C408.911 32.2415 407.519 32.6345 406.298 33.4205C405.076 34.2064 404.115 35.3617 403.414 36.8864C402.723 38.4015 402.377 40.2481 402.377 42.4261C402.377 44.6231 402.723 46.4839 403.414 48.0085C404.106 49.5331 405.067 50.6932 406.298 51.4886C407.529 52.2746 408.959 52.6676 410.588 52.6676C412.065 52.6676 413.343 52.3835 414.423 51.8153C415.512 51.2472 416.35 50.4422 416.937 49.4006C417.524 48.3494 417.818 47.1184 417.818 45.7074L419.011 45.892H411.113V41.7727H422.917V45.267C422.917 47.7576 422.387 49.9119 421.326 51.7301C420.266 53.5483 418.807 54.9498 416.951 55.9347C415.095 56.91 412.965 57.3977 410.559 57.3977C407.879 57.3977 405.526 56.7964 403.5 55.5938C401.483 54.3816 399.906 52.6629 398.769 50.4375C397.643 48.2027 397.079 45.5511 397.079 42.483C397.079 40.1345 397.411 38.0369 398.073 36.1903C398.746 34.3438 399.683 32.7765 400.886 31.4886C402.089 30.1913 403.5 29.2064 405.119 28.5341C406.738 27.8523 408.5 27.5114 410.403 27.5114C412.013 27.5114 413.514 27.7481 414.906 28.2216C416.298 28.6856 417.534 29.3485 418.613 30.2102C419.702 31.072 420.597 32.0947 421.298 33.2784C421.999 34.4621 422.458 35.7689 422.676 37.1989H417.306Z" fill="#FFE600"/>
<rect x="17.5" y="20.5" width="412" height="44" rx="8.5" stroke="black" stroke-width="3"/>
<path d="M374.005 71.0898C373.955 70.6246 373.745 70.2624 373.376 70.0032C373.01 69.744 372.534 69.6143 371.949 69.6143C371.537 69.6143 371.183 69.6765 370.888 69.8008C370.594 69.9251 370.368 70.0937 370.212 70.3068C370.056 70.5199 369.976 70.7631 369.972 71.0366C369.972 71.2638 370.024 71.4609 370.127 71.6278C370.233 71.7947 370.377 71.9368 370.558 72.054C370.739 72.1676 370.94 72.2635 371.16 72.3416C371.38 72.4197 371.602 72.4854 371.826 72.5387L372.849 72.7944C373.261 72.8903 373.657 73.0199 374.037 73.1832C374.42 73.3466 374.763 73.5526 375.065 73.8011C375.37 74.0497 375.612 74.3498 375.789 74.7013C375.967 75.0529 376.055 75.4648 376.055 75.9371C376.055 76.5763 375.892 77.1392 375.565 77.6257C375.239 78.1087 374.766 78.4869 374.148 78.7603C373.534 79.0302 372.79 79.1651 371.917 79.1651C371.068 79.1651 370.331 79.0337 369.706 78.771C369.085 78.5082 368.598 78.1246 368.246 77.6204C367.898 77.1161 367.71 76.5018 367.682 75.7773H369.626C369.654 76.1573 369.772 76.4734 369.978 76.7255C370.184 76.9776 370.452 77.1658 370.782 77.2901C371.116 77.4144 371.489 77.4766 371.901 77.4766C372.33 77.4766 372.707 77.4126 373.03 77.2848C373.357 77.1534 373.612 76.9723 373.797 76.7415C373.982 76.5071 374.076 76.2337 374.079 75.9212C374.076 75.6371 373.992 75.4027 373.829 75.218C373.665 75.0298 373.436 74.8736 373.142 74.7493C372.85 74.6214 372.51 74.5078 372.119 74.4084L370.878 74.0888C369.979 73.858 369.269 73.5082 368.747 73.0394C368.229 72.5671 367.969 71.9403 367.969 71.1591C367.969 70.5163 368.143 69.9535 368.491 69.4705C368.843 68.9876 369.321 68.6129 369.924 68.3466C370.528 68.0767 371.212 67.9418 371.975 67.9418C372.749 67.9418 373.428 68.0767 374.01 68.3466C374.596 68.6129 375.056 68.984 375.39 69.4599C375.723 69.9322 375.896 70.4755 375.906 71.0898H374.005ZM379.37 79.1172C379.047 79.1172 378.77 79.0036 378.539 78.7763C378.308 78.549 378.194 78.272 378.198 77.9453C378.194 77.6257 378.308 77.3523 378.539 77.125C378.77 76.8977 379.047 76.7841 379.37 76.7841C379.682 76.7841 379.954 76.8977 380.185 77.125C380.419 77.3523 380.538 77.6257 380.542 77.9453C380.538 78.1619 380.481 78.359 380.371 78.5366C380.265 78.7141 380.123 78.8562 379.945 78.9627C379.771 79.0657 379.579 79.1172 379.37 79.1172ZM384.469 79H382.359L386.2 68.0909H388.64L392.485 79H390.376L387.462 70.3281H387.377L384.469 79ZM384.538 74.7227H390.291V76.31H384.538V74.7227ZM395.475 79.1172C395.152 79.1172 394.875 79.0036 394.644 78.7763C394.413 78.549 394.299 78.272 394.303 77.9453C394.299 77.6257 394.413 77.3523 394.644 77.125C394.875 76.8977 395.152 76.7841 395.475 76.7841C395.787 76.7841 396.059 76.8977 396.29 77.125C396.524 77.3523 396.643 77.6257 396.647 77.9453C396.643 78.1619 396.586 78.359 396.476 78.5366C396.37 78.7141 396.228 78.8562 396.05 78.9627C395.876 79.0657 395.684 79.1172 395.475 79.1172ZM399.173 79V68.0909H403.264C404.102 68.0909 404.805 68.2365 405.373 68.5277C405.945 68.8189 406.376 69.2273 406.668 69.7528C406.962 70.2749 407.11 70.8839 407.11 71.5799C407.11 72.2795 406.961 72.8867 406.662 73.4016C406.367 73.913 405.932 74.3089 405.357 74.5895C404.782 74.8665 404.075 75.005 403.237 75.005H400.323V73.3643H402.971C403.461 73.3643 403.862 73.2969 404.175 73.1619C404.487 73.0234 404.718 72.8228 404.867 72.56C405.02 72.2937 405.096 71.967 405.096 71.5799C405.096 71.1928 405.02 70.8626 404.867 70.5891C404.714 70.3121 404.482 70.1026 404.169 69.9606C403.857 69.815 403.454 69.7422 402.96 69.7422H401.149V79H399.173ZM404.809 74.0568L407.509 79H405.304L402.651 74.0568H404.809ZM410.481 79.1172C410.158 79.1172 409.881 79.0036 409.65 78.7763C409.42 78.549 409.306 78.272 409.309 77.9453C409.306 77.6257 409.42 77.3523 409.65 77.125C409.881 76.8977 410.158 76.7841 410.481 76.7841C410.794 76.7841 411.066 76.8977 411.296 77.125C411.531 77.3523 411.65 77.6257 411.653 77.9453C411.65 78.1619 411.593 78.359 411.483 78.5366C411.376 78.7141 411.234 78.8562 411.057 78.9627C410.883 79.0657 410.691 79.1172 410.481 79.1172ZM414.179 79V68.0909H416.156V77.3434H420.96V79H414.179ZM424.228 79.1172C423.905 79.1172 423.628 79.0036 423.397 78.7763C423.166 78.549 423.053 78.272 423.056 77.9453C423.053 77.6257 423.166 77.3523 423.397 77.125C423.628 76.8977 423.905 76.7841 424.228 76.7841C424.541 76.7841 424.812 76.8977 425.043 77.125C425.277 77.3523 425.396 77.6257 425.4 77.9453C425.396 78.1619 425.34 78.359 425.229 78.5366C425.123 78.7141 424.981 78.8562 424.803 78.9627C424.629 79.0657 424.438 79.1172 424.228 79.1172Z" fill="black"/>
</svg>
